<?xml version="1.0" encoding="UTF-8"?>
<svg id="Layer_2" data-name="Layer 2" xmlns="http://www.w3.org/2000/svg" viewBox="0 0 665.12 269.02">
  <g id="objects">
    <g id="easy_button">
      <g>
        <path d="M47.49,21.21H617.63c17.61,0,31.9,14.29,31.9,31.9V215.91c0,17.61-14.3,31.9-31.9,31.9H47.49c-17.61,0-31.9-14.3-31.9-31.9V53.11c0-17.61,14.3-31.9,31.9-31.9Z" fill="#fff"/>
        <path d="M608.08,21.21c22.89,0,41.45,25.24,41.45,56.38v113.85c0,31.14-18.56,56.38-41.45,56.38H57.04c-22.89,0-41.45-25.24-41.45-56.38V77.58c0-31.14,18.56-56.38,41.45-56.38H608.08m0-21.21H57.04C25.59,0,0,34.8,0,77.58v113.85c0,42.78,25.59,77.59,57.04,77.59H608.08c31.45,0,57.04-34.8,57.04-77.59V77.58c0-42.78-25.59-77.58-57.04-77.58h0Z" fill="#211e4c"/>
        <path d="M332.56,167.83c-131.61,0-247.72-28.42-316.97-71.73v95.33c0,31.14,18.56,56.38,41.45,56.38H608.08c22.89,0,41.45-25.24,41.45-56.38V96.11c-69.25,43.31-185.36,71.73-316.97,71.73Z" opacity=".1"/>
        <g>
          <ellipse cx="49.41" cy="61.85" rx="11.06" ry="15.05" fill="#211e4c"/>
          <ellipse cx="49.41" cy="208.24" rx="11.06" ry="15.05" fill="#211e4c"/>
          <ellipse cx="615.71" cy="61.85" rx="11.06" ry="15.05" fill="#211e4c"/>
          <ellipse cx="615.71" cy="208.24" rx="11.06" ry="15.05" fill="#211e4c"/>
        </g>
      </g>
      <g>
        <path d="M231.25,175.1c-.31-12.42-.47-24.16-.47-35.25s.63-25.5,1.89-43.26c13.43-2.04,26.56-3.07,39.37-3.07v14.5c-8.88,0-17.13,.28-24.75,.83-.31,8.8-.51,15.56-.59,20.28,5.97-.87,13.05-1.38,21.22-1.53l2.24,12.97c-5.26,.08-13.16,.67-23.69,1.77,0,9.43,.04,16.23,.12,20.39,6.83-.55,15.01-1.73,24.52-3.53l2.01,12.97c-6.68,3.07-14.58,4.6-23.69,4.6l-18.15-1.65Z" fill="#211e4c"/>
        <path d="M316.71,173.45l-2.71-16.39-17.56,.71-4.48,22.16-16.5-1.42,21.1-85.46,21.81,1.88,15.44,79.92-17.09-1.41Zm-10.37-64.95l-7.43,36.66,13.2-.47-5.77-36.19Z" fill="#211e4c"/>
        <path d="M371.52,123.12c1.02-3.85,1.53-7.07,1.53-9.67s-.71-4.73-2.12-6.42c-1.41-1.69-3.24-2.54-5.48-2.54s-4.11,1.1-5.6,3.3c-1.5,2.2-2.24,4.72-2.24,7.54,0,5.5,3.14,10.22,9.43,14.15,6.29,4.09,10.57,7.03,12.85,8.84,2.28,1.81,3.89,3.46,4.83,4.95,2.36,3.85,3.53,7.82,3.53,11.91,0,7.07-2.38,12.71-7.13,16.91-4.76,4.2-10.12,6.31-16.09,6.31-7.07,0-13.01-2.99-17.8-8.96-3.46-4.32-6.64-9.71-9.55-16.15l11.43-5.54c1.81,4.71,4.07,8.7,6.78,11.96,2.71,3.26,5.6,4.89,8.67,4.89,1.96,0,3.73-.63,5.3-1.89,1.57-1.26,2.36-3.16,2.36-5.71s-.98-4.93-2.95-7.13c-1.96-2.2-4.59-4.44-7.89-6.72-3.3-2.28-5.85-4.14-7.66-5.6-1.81-1.45-3.81-3.32-6.01-5.6-4.17-4.4-6.25-10.04-6.25-16.91s2.4-12.65,7.19-17.33c4.79-4.67,10.49-7.01,17.09-7.01s12.16,2.55,16.68,7.66c4.52,5.11,6.78,10.35,6.78,15.74s-1.02,10-3.07,13.85l-14.62-4.83Z" fill="#211e4c"/>
        <path d="M410.89,152.11v-9.08c-10.3-21.77-15.99-37.44-17.1-47.03l14.74,1.42c1.72,8.8,5.34,19.33,10.84,31.59,6.52-14.22,11.59-27.07,15.21-38.54l13.67,1.29c-5.82,16.58-12.81,33.44-20.98,50.57-.16,7.07-.23,13.28-.23,18.62s.15,10.73,.47,16.15l-15.56-1.65c-.71-7.31-1.06-15.09-1.06-23.34Z" fill="#211e4c"/>
      </g>
    </g>
  </g>
</svg>