<?xml version="1.0" encoding="UTF-8"?>
<svg id="Layer_2" data-name="Layer 2" xmlns="http://www.w3.org/2000/svg" viewBox="0 0 665.12 269.02">
  <g id="objects">
    <g id="easy_button">
      <g>
        <path d="M47.49,21.21H617.63c17.61,0,31.9,14.29,31.9,31.9V215.91c0,17.61-14.3,31.9-31.9,31.9H47.49c-17.61,0-31.9-14.3-31.9-31.9V53.11c0-17.61,14.3-31.9,31.9-31.9Z" fill="#fff"/>
        <path d="M608.08,21.21c22.89,0,41.45,25.24,41.45,56.38v113.85c0,31.14-18.56,56.38-41.45,56.38H57.04c-22.89,0-41.45-25.24-41.45-56.38V77.58c0-31.14,18.56-56.38,41.45-56.38H608.08m0-21.21H57.04C25.59,0,0,34.8,0,77.58v113.85c0,42.78,25.59,77.59,57.04,77.59H608.08c31.45,0,57.04-34.8,57.04-77.59V77.58c0-42.78-25.59-77.58-57.04-77.58h0Z" fill="#211e4c"/>
        <path d="M332.56,167.83c-131.61,0-247.72-28.42-316.97-71.73v95.33c0,31.14,18.56,56.38,41.45,56.38H608.08c22.89,0,41.45-25.24,41.45-56.38V96.11c-69.25,43.31-185.36,71.73-316.97,71.73Z" opacity=".1"/>
        <g>
          <ellipse cx="49.41" cy="61.85" rx="11.06" ry="15.05" fill="#211e4c"/>
          <ellipse cx="49.41" cy="208.24" rx="11.06" ry="15.05" fill="#211e4c"/>
          <ellipse cx="615.71" cy="61.85" rx="11.06" ry="15.05" fill="#211e4c"/>
          <ellipse cx="615.71" cy="208.24" rx="11.06" ry="15.05" fill="#211e4c"/>
        </g>
      </g>
    </g>
    <g id="hard_button">
      <g>
        <path d="M238.03,118.7l.1,11.3,14.73-.89c0-10.21,.16-21.05,.49-32.51l12.97,1.18c-.59,10.41-.89,21.69-.89,33.84s.36,24.35,1.08,36.59l-12.57-1.08c-.59-5.63-.95-14.67-1.08-27.11l-14.44,.89c.2,9.3,.49,18.76,.88,28.39l-13.36-1.18c-.72-13.82-1.08-26.52-1.08-38.11s.26-21.61,.79-30.06l12.96,1.18c-.39,5.83-.59,11.69-.59,17.59Z" fill="#211e4c"/>
        <path d="M305.91,166.93l-2.26-13.66-14.64,.59-3.73,18.47-13.75-1.18,17.59-71.21,18.17,1.57,12.87,66.6-14.24-1.18Zm-8.64-54.12l-6.19,30.55,11-.39-4.81-30.16Z" fill="#211e4c"/>
        <path d="M328.01,168.8c.85-15.71,1.28-29.73,1.28-42.04s-.04-20.4-.1-24.26c7.2-3.41,14.7-5.11,22.49-5.11,5.76,0,10.59,1.83,14.49,5.5,3.9,3.67,5.85,8.84,5.85,15.52,0,7.73-5.47,15.16-16.41,22.3,5.96,7.47,12.05,15.69,18.27,24.66l-9.43,6.98c-4.12-6.22-11.52-16.37-22.2-30.45-.2,10.09-.49,19.55-.88,28.39l-13.36-1.48Zm26.91-42.09c3.41-3.37,5.11-6.43,5.11-9.18s-.8-4.88-2.41-6.39c-1.61-1.5-3.72-2.26-6.34-2.26s-5.5,.56-8.64,1.67c0,11.07-.04,19.29-.1,24.65,4.84-2.29,8.97-5.12,12.38-8.5Z" fill="#211e4c"/>
        <path d="M396.86,99.05c7.66,0,13.57,3.02,17.73,9.04,4.16,6.02,6.24,13.33,6.24,21.91,0,6.61-1.05,12.85-3.14,18.71-2.1,5.86-5.37,10.77-9.82,14.73s-9.66,5.94-15.62,5.94c-1.18,0-5.63-.46-13.36-1.38,.92-14.08,1.38-25.73,1.38-34.97s-.29-19.45-.88-30.65c6.35-2.22,12.18-3.34,17.48-3.34Zm6.82,50.34c2.98-5.34,4.47-11.1,4.47-17.29s-1.07-11.28-3.2-15.27c-2.13-3.99-4.66-5.99-7.61-5.99-1.57,0-3.05,.26-4.42,.79,.26,9.69,.39,17.83,.39,24.41s-.2,13.44-.59,20.58c.46,.53,1.11,.79,1.96,.79,3.01,0,6-2.67,8.98-8Z" fill="#211e4c"/>
      </g>
    </g>
  </g>
</svg>