<?xml version="1.0" encoding="UTF-8"?>
<svg id="Layer_2" data-name="Layer 2" xmlns="http://www.w3.org/2000/svg" viewBox="0 0 665.12 269.02">
  <g id="objects">
    <g id="easy_button">
      <g>
        <path d="M47.49,21.21H617.63c17.61,0,31.9,14.29,31.9,31.9V215.91c0,17.61-14.3,31.9-31.9,31.9H47.49c-17.61,0-31.9-14.3-31.9-31.9V53.11c0-17.61,14.3-31.9,31.9-31.9Z" fill="#fff"/>
        <path d="M608.08,21.21c22.89,0,41.45,25.24,41.45,56.38v113.85c0,31.14-18.56,56.38-41.45,56.38H57.04c-22.89,0-41.45-25.24-41.45-56.38V77.58c0-31.14,18.56-56.38,41.45-56.38H608.08m0-21.21H57.04C25.59,0,0,34.8,0,77.58v113.85c0,42.78,25.59,77.59,57.04,77.59H608.08c31.45,0,57.04-34.8,57.04-77.59V77.58c0-42.78-25.59-77.58-57.04-77.58h0Z" fill="#211e4c"/>
        <path d="M332.56,167.83c-131.61,0-247.72-28.42-316.97-71.73v95.33c0,31.14,18.56,56.38,41.45,56.38H608.08c22.89,0,41.45-25.24,41.45-56.38V96.11c-69.25,43.31-185.36,71.73-316.97,71.73Z" opacity=".1"/>
        <g>
          <ellipse cx="49.41" cy="61.85" rx="11.06" ry="15.05" fill="#211e4c"/>
          <ellipse cx="49.41" cy="208.24" rx="11.06" ry="15.05" fill="#211e4c"/>
          <ellipse cx="615.71" cy="61.85" rx="11.06" ry="15.05" fill="#211e4c"/>
          <ellipse cx="615.71" cy="208.24" rx="11.06" ry="15.05" fill="#211e4c"/>
        </g>
      </g>
    </g>
    <g id="normal_button">
      <g>
        <path d="M223.79,96.45l.1,45.68c0,7.53-.26,15.62-.79,24.26l-11-1.08c-8.45-19.19-15.36-33.56-20.73-43.12,.06,9.7,.1,25.15,.1,46.36l-11.49-1.28c-.2-4.06-.3-7.99-.3-11.79,0-15.85,.89-34.31,2.65-55.4l13.07,1.28c6.48,17.88,12.31,31.47,17.48,40.77-.39-19.78-.85-35.36-1.38-46.76l12.28,1.08Z" fill="#211e4c"/>
        <path d="M253.7,168.94c-6.25,0-11.53-2.8-15.82-8.4-4.29-5.6-6.43-14.11-6.43-25.54s2.34-20.74,7.02-27.95c4.68-7.2,10.2-10.8,16.55-10.8s11.64,2.82,15.86,8.45c4.23,5.63,6.34,14.11,6.34,25.44s-2.36,20.63-7.07,27.9c-4.71,7.27-10.2,10.9-16.45,10.9Zm-6.04-53.39c-2.1,5.07-3.14,11.46-3.14,19.15s.9,13.39,2.7,17.09,4.04,5.55,6.73,5.55,5.06-2.55,7.12-7.66c2.06-5.11,3.09-11.51,3.09-19.2s-.87-13.38-2.61-17.04c-1.73-3.66-3.88-5.5-6.43-5.5-2.88,0-5.37,2.54-7.46,7.61Z" fill="#211e4c"/>
        <path d="M285.38,166.49c.85-15.71,1.28-29.73,1.28-42.04s-.04-20.4-.1-24.26c7.2-3.41,14.7-5.11,22.49-5.11,5.76,0,10.59,1.83,14.49,5.5,3.9,3.67,5.85,8.84,5.85,15.52,0,7.73-5.47,15.16-16.41,22.3,5.96,7.47,12.05,15.69,18.27,24.66l-9.43,6.98c-4.12-6.22-11.52-16.37-22.2-30.45-.2,10.09-.49,19.55-.88,28.39l-13.36-1.48Zm26.91-42.09c3.41-3.37,5.11-6.43,5.11-9.18s-.8-4.88-2.41-6.39c-1.61-1.5-3.72-2.26-6.34-2.26s-5.5,.56-8.64,1.67c0,11.07-.04,19.29-.1,24.65,4.84-2.29,8.97-5.12,12.38-8.5Z" fill="#211e4c"/>
        <path d="M336.36,166.19c-.52-17.03-.79-29.86-.79-38.5s.55-17.88,1.67-27.7l18.46,1.47c2.29,8.25,4.71,19.81,7.27,34.68,3.67-11.98,6.91-24.95,9.72-38.9l18.57,1.67c.52,20.23,.79,35.02,.79,44.35s-.29,17.63-.88,24.9l-13.46-1.28c.85-8.25,1.57-25.73,2.16-52.45l-.79-.1c-.66,2.55-1.7,6.94-3.14,13.16-3.01,12.9-5.93,23.9-8.74,33l-8.94-.79c-1.57-6.29-3.39-14.42-5.45-24.41-2.06-9.98-3.65-17.34-4.76-22.05l-.79-.1c.59,21.87,1.28,39.95,2.07,54.22l-12.97-1.18Z" fill="#211e4c"/>
        <path d="M429.38,164.62l-2.26-13.66-14.64,.59-3.73,18.47-13.75-1.18,17.59-71.21,18.17,1.57,12.87,66.6-14.24-1.18Zm-8.64-54.12l-6.19,30.55,11-.39-4.81-30.16Z" fill="#211e4c"/>
        <path d="M453.74,165.01c-.85-13.49-1.27-25.85-1.27-37.08s.36-21.43,1.08-30.6l13.07,1.18c-.98,11.27-1.48,22.04-1.48,32.32s.16,17.85,.49,22.69c2.36-.33,8.15-.98,17.39-1.96l1.96,11.39c-4.91,.59-11.85,1.57-20.82,2.95l-10.41-.88Z" fill="#211e4c"/>
      </g>
    </g>
  </g>
</svg>