<?xml version="1.0" encoding="UTF-8"?>
<svg id="Layer_2" data-name="Layer 2" xmlns="http://www.w3.org/2000/svg" viewBox="0 0 511.93 152.23">
  <g id="objects">
    <g id="play_button">
      <g>
        <rect x="12" y="12" width="487.93" height="128.23" rx="31.9" ry="31.9" fill="#fff"/>
        <path d="M468.03,12c17.62,0,31.9,14.28,31.9,31.9V108.33c0,17.62-14.28,31.9-31.9,31.9H43.9c-17.62,0-31.9-14.28-31.9-31.9V43.9c0-17.62,14.28-31.9,31.9-31.9H468.03m0-12H43.9C19.69,0,0,19.69,0,43.9V108.33c0,24.21,19.69,43.9,43.9,43.9H468.03c24.21,0,43.9-19.69,43.9-43.9V43.9c0-24.21-19.69-43.9-43.9-43.9h0Z" fill="#211e4c"/>
        <path d="M255.97,94.97c-101.3,0-190.67-16.08-243.97-40.59v53.95c0,17.62,14.28,31.9,31.9,31.9H468.03c17.62,0,31.9-14.28,31.9-31.9V54.39c-53.3,24.51-142.67,40.59-243.97,40.59Z" opacity=".1"/>
        <g>
          <circle cx="38.03" cy="35" r="8.52" transform="translate(-13.03 42.99) rotate(-51.52)" fill="#211e4c"/>
          <circle cx="38.03" cy="117.84" r="8.52" transform="translate(-77.88 74.29) rotate(-51.52)" fill="#211e4c"/>
          <circle cx="473.9" cy="35" r="8.52" transform="translate(351.84 494.25) rotate(-79.34)" fill="#211e4c"/>
          <circle cx="473.9" cy="117.84" r="8.52" transform="translate(270.43 561.76) rotate(-79.34)" fill="#211e4c"/>
        </g>
      </g>
      <g>
        <path d="M167.67,110.81c-.27-7.44-.39-16.37-.39-26.8s.33-24.36,.98-41.8c5.53-2.04,11.2-3.06,17.03-3.06s11.02,2.16,15.6,6.46c4.57,4.31,6.86,9.74,6.86,16.29s-2.48,12.21-7.45,16.98c-4.97,4.77-11.46,8.28-19.5,10.51,0,7.37,.1,14.94,.3,22.7l-13.42-1.28Zm22.95-38.89c2.4-2.83,3.6-5.98,3.6-9.47s-.91-6.32-2.71-8.49c-1.81-2.17-3.83-3.25-6.07-3.25-.59,0-1.94,.16-4.05,.49-.33,9.28-.53,18.26-.59,26.95,4.15-1.31,7.42-3.39,9.82-6.22Z" fill="#211e4c"/>
        <path d="M215.15,108.54c-.86-13.55-1.29-25.97-1.29-37.26s.36-21.53,1.09-30.75l13.13,1.18c-.99,11.32-1.48,22.14-1.48,32.48s.16,17.93,.49,22.8c2.37-.33,8.2-.99,17.47-1.98l1.98,11.45c-4.94,.59-11.91,1.58-20.93,2.96l-10.46-.89Z" fill="#211e4c"/>
        <path d="M281.77,108.15l-2.27-13.72-14.71,.59-3.75,18.56-13.82-1.18,17.67-71.56,18.26,1.58,12.93,66.93-14.31-1.19Zm-8.69-54.39l-6.22,30.7,11.06-.39-4.84-30.3Z" fill="#211e4c"/>
        <path d="M311.98,90.28v-7.6c-8.62-18.23-13.39-31.36-14.31-39.39l12.34,1.19c1.45,7.37,4.47,16.19,9.08,26.45,5.46-11.91,9.7-22.67,12.73-32.28l11.45,1.09c-4.87,13.88-10.73,28-17.57,42.34-.13,5.92-.2,11.12-.2,15.6s.13,8.98,.39,13.52l-13.03-1.38c-.59-6.12-.89-12.64-.89-19.54Z" fill="#211e4c"/>
      </g>
    </g>
  </g>
</svg>