<?xml version="1.0" encoding="UTF-8"?>
<svg id="Layer_2" data-name="Layer 2" xmlns="http://www.w3.org/2000/svg" viewBox="0 0 216.86 216.86">
  <g id="objects">
    <g id="retry_button">
      <g>
        <rect width="216.86" height="216.86" rx="42.89" ry="42.89" fill="#211e4c"/>
        <rect x="11.96" y="11.96" width="192.94" height="192.94" rx="34.46" ry="34.46" fill="#fff"/>
        <path d="M108.26,125.98c-39.02,0-73.77-18.2-96.3-46.55v91.01c0,19.03,15.43,34.46,34.46,34.46h124.02c19.03,0,34.46-15.43,34.46-34.46V79c-22.51,28.6-57.42,46.98-96.64,46.98Z" opacity=".1"/>
        <g>
          <circle cx="34.11" cy="33.34" r="8.52" fill="#211e4c"/>
          <circle cx="34.11" cy="181.22" r="8.52" fill="#211e4c"/>
          <circle cx="182.75" cy="33.34" r="8.52" fill="#211e4c"/>
          <circle cx="182.75" cy="181.22" r="8.52" fill="#211e4c"/>
        </g>
      </g>
      <path d="M155.28,117.23c-1.25,23.85-20.79,43.39-44.64,44.64-24.27,1.27-44.81-15.78-49.01-38.56-.82-4.47,2.5-8.62,7.05-8.62,3.52,0,6.44,2.57,7.08,6.04,2.93,15.77,17.1,27.59,33.89,26.82,16.75-.77,30.53-14.55,31.3-31.3,.85-18.45-13.53-33.71-31.63-34.38v3.99c0,5.97-6.46,9.7-11.63,6.72l-20.05-11.58c-5.17-2.98-5.17-10.45,0-13.43l20.05-11.58c5.17-2.99,11.63,.75,11.63,6.72v4.78c26.37,.67,47.36,22.93,45.96,49.76Z" fill="#211e4c"/>
    </g>
  </g>
</svg>